<?xml version="1.0" encoding="UTF-8"?>
<svg id="Layer_1" xmlns="http://www.w3.org/2000/svg" version="1.1" viewBox="0 0 595.3 595.3">
  <!-- Generator: Adobe Illustrator 30.5.1, SVG Export Plug-In . SVG Version: 2.1.4 Build 3)  -->
  <defs>
    <style>
      .st0 {
        stroke: #fff;
        stroke-linecap: round;
        stroke-width: 20px;
      }

      .st0, .st1 {
        stroke-miterlimit: 10;
      }

      .st0, .st1, .st2 {
        fill: #00a074;
      }

      .st3 {
        fill: none;
      }

      .st1 {
        stroke: #00a074;
        stroke-width: 59px;
      }
    </style>
  </defs>
  <g>
    <path class="st2" d="M280.3,493.9c-1.7,0-3.3,0-5,0-17.9-.7-35.5-4.9-52.2-12.6-18.4-8.5-34.4-20.4-47.5-35.6-12.6-14.5-22-31.3-28-49.8-6-18.7-8.1-38.1-6.2-57.6,1.9-20.2,8.1-39.5,18.2-57.3l96.1-168.6c4-7.1,11.3-11.4,19.4-11.5.1,0,.2,0,.4,0,8,0,15.2,4.1,19.4,10.9,30.2,48.8,60.5,97.6,90.7,146.4-4.7-1.5-11.3-3-19.2-3.2-7.7,0-13.6,1.1-17.9,2-24.6-41.7-48.1-83.9-72.7-125.6-.1-.2-.5-.2-.6,0l-92.7,162.6c-8.3,14.5-13.3,30.2-14.9,46.7-1.5,15.9.2,31.7,5.1,47,4.8,15.1,12.5,28.7,22.8,40.6,10.7,12.3,23.7,22,38.6,28.9,13.5,6.2,27.7,9.6,42.1,10.2,4,.1,18.8.5,36.9-5,9.3-2.8,16.8-6.3,21.9-9.1.3-.1.7-.2,1.1-.1,3.6,1,8.9,2.7,17.1,3.3,7.7.6,21.1-.1,26.4-.8-5.1,4.2-31.5,23.7-58.6,31.9,0,0-21.1,6.3-40.9,6.3Z"/>
    <path class="st2" d="M277.9,442.4c-.6,0-1.3,0-1.9-.2-11.1-2.6-38.9-11.6-57.8-39.9-17.9-26.8-16.5-54.5-15.1-65.2.6-4.7,4.9-7.9,9.6-7.3,4.7.6,7.9,4.9,7.3,9.6-1.2,8.8-2.2,31.6,12.4,53.5,15.5,23.2,38.3,30.6,47.5,32.8,4.6,1.1,7.4,5.6,6.4,10.2-.9,3.9-4.4,6.6-8.3,6.6Z"/>
    <path class="st1" d="M369.1,297.6"/>
    <path class="st0" d="M393.2,356.5"/>
    <path class="st0" d="M316.7,357.1"/>
    <path class="st2" d="M363.8,265.6c-50.1,0-90.7,40.6-90.7,90.7s40.6,90.7,90.7,90.7,90.7-40.6,90.7-90.7-40.6-90.7-90.7-90.7ZM334.3,297.6c2.6,0,4.8,2.1,4.8,4.8s-2.1,4.8-4.8,4.8-4.8-2.1-4.8-4.8,2.1-4.8,4.8-4.8ZM386.8,419.1c-7.5,2.6-15.3,3.9-23.1,3.9s-10.6-.6-15.8-1.8c-12.8-3-24.1-9.5-32.7-18.9-10.3-11.2-16.2-26.2-16.6-42-.4-13.9,3.4-27.7,10.8-39.5l-4.5,2.1c-2.3,1-4.9,0-5.9-2.2-1-2.3,0-4.9,2.2-5.9l17.5-8c1.3-.6,2.9-.5,4.2.2,1.3.8,2.1,2.1,2.2,3.5l1.3,19c.2,2.5-1.7,4.6-4.2,4.8-.1,0-.2,0-.3,0-2.3,0-4.3-1.8-4.5-4.2l-.3-4.6c-6.5,10.4-9.9,22.4-9.5,34.6.4,13.7,5.5,26.6,14.3,36.2,7.4,8,17.1,13.6,28.1,16.2,11.1,2.6,22.8,2,33.9-1.8,2.3-.8,4.9.4,5.7,2.8.8,2.3-.4,4.9-2.8,5.7ZM425.6,381.9c-1.4,5.8-4,11.2-7.6,15.9-3.6,4.8-8.4,9-13.7,11.9-.7.4-1.4.6-2.2.6-1.6,0-3.1-.8-3.9-2.3-1.2-2.2-.4-4.9,1.7-6.1,4.2-2.4,8-5.7,10.9-9.5,2.8-3.7,4.9-8.1,6-12.7.6-2.4,3-3.9,5.4-3.3,2.4.6,3.9,3,3.3,5.4ZM426.8,365.7c-.7,1.2-2,2-3.4,2.2-.5,0-.9,0-1.4,0-.9-.2-1.8-.7-2.4-1.4l-13.7-15.6c-1.6-1.9-1.4-4.7.4-6.3,1.9-1.6,4.7-1.4,6.3.4l3.9,4.4c-.2-2.7-.7-5.9-1.6-9.4-2.9-11.6-8.9-21-17.7-28.1-19.6-15.8-43-10.6-45.6-10-2.4.6-4.8-.9-5.4-3.3-.6-2.4.9-4.8,3.3-5.4,5-1.2,30.9-6.4,53.3,11.7,18,14.5,22,34.5,22.7,45.3l3.4-5.8c1.3-2.1,4-2.8,6.1-1.6s2.8,4,1.6,6.1l-9.9,16.8Z"/>
    <circle class="st2" cx="214.5" cy="302.3" r="8.4"/>
  </g>
  <rect class="st3" width="595.3" height="595.3"/>
</svg>