<?xml version="1.0" encoding="UTF-8"?><svg id="Layer_1" xmlns="http://www.w3.org/2000/svg" width="210mm" height="210mm" viewBox="0 0 595.28 595.28"><rect x="92.95" y="476.93" width="409.38" height="17.2" style="fill:#00a174; stroke:#00a174; stroke-linecap:round; stroke-linejoin:round; stroke-width:7px;"/><circle cx="486.41" cy="290.68" r="10.62" style="fill:#00a174; stroke:#00a174; stroke-linecap:round; stroke-linejoin:round; stroke-width:7px;"/><path d="M439.94,101.15H155.33c-6.17,0-11.17,5-11.17,11.17v365.16c0,6.17,5,11.17,11.17,11.17h284.61c6.17,0,11.17-5,11.17-11.17V112.32c0-6.17-5-11.17-11.17-11.17ZM289.74,452.48c-.02,4.96-6.56,6.73-9.09,2.47l-94.25-158.9c-.94-1.58-.91-3.55.07-5.1l95.75-151.57c2.62-4.15,9.04-2.28,9.02,2.63l-1.49,310.46ZM408.88,296.05l-94.25,158.9c-2.53,4.26-9.07,2.49-9.09-2.47l-1.49-310.46c-.02-4.91,6.4-6.79,9.02-2.63l95.75,151.57c.98,1.55,1.01,3.52.07,5.1Z" style="fill:#00a174; stroke:#00a174; stroke-linecap:round; stroke-linejoin:round; stroke-width:7px;"/></svg>