<?xml version="1.0" encoding="UTF-8"?><svg id="Layer_1" xmlns="http://www.w3.org/2000/svg" width="210mm" height="210mm" viewBox="0 0 595.28 595.28"><path d="M481.7,266.11c-1.48-.73-3.09-1.05-4.68-1.44-11.6-2.84-23.2-5.69-34.8-8.51-3.65-.89-6.02-2.42-7.14-6.25-1.49-5.12-3.74-9.99-6.1-14.74-1.55-3.12-1.24-5.64.53-8.52,5.71-9.29,11.29-18.66,16.73-28.12,4.54-7.9,3.89-12.25-2.47-18.71-9.3-9.46-18.63-18.88-27.97-28.29-7-7.05-11.59-7.6-20.12-2.45-9.18,5.54-18.36,11.09-27.48,16.73-2.52,1.56-4.72,1.67-7.4.34-4.84-2.4-9.76-4.73-14.93-6.3-3.45-1.05-4.97-3.19-5.81-6.62-3.03-12.46-5.79-24.99-8.98-37.4-1.96-7.61-6.07-10.72-13.81-10.71-13.83,0-27.65.02-41.48.04-9.23,0-12.97,2.87-15.14,11.98-2.91,12.24-5.97,24.44-8.88,36.68-.76,3.2-2.36,5.17-5.43,6.13-5.78,1.81-11.29,4.33-16.68,7.08-2.78,1.42-5.06,1.31-7.73-.33-9.45-5.79-18.86-11.66-28.35-17.38-8.58-5.16-13.42-4.55-20.53,2.56-9.21,9.21-18.38,18.48-27.49,27.79-6.27,6.41-6.91,12.18-2.35,19.93,5.84,9.94,11.62,19.9,17.68,29.7,1.96,3.17,2.28,5.9.56,9.19-2.05,3.94-3.7,8.09-5.02,12.33-.99,3.18-2.95,4.62-6.08,5.41-12.32,3.12-24.71,5.96-37.02,9.13-5.49,1.41-9.61,4.26-10.56,10.39-.02,16.78-.03,33.56-.05,50.34.92,5.94,4.83,8.88,10.2,10.23,12.56,3.17,25.16,6.14,37.72,9.29,3.02.76,4.89,2.27,5.78,5.24,1.68,5.61,4.07,10.94,6.63,16.17,1.33,2.72,1.23,4.85-.35,7.43-5.37,8.76-10.54,17.64-15.77,26.48-4.71,7.95-4.1,13.3,2.3,19.78,9.32,9.44,18.64,18.87,27.98,28.29,6.49,6.55,11.68,7.21,19.56,2.45,8.97-5.41,17.95-10.8,26.85-16.32,2.18-1.35,4.02-1.42,6.31-.28,5.29,2.64,10.68,5.13,16.3,6.94,3.17,1.02,4.56,3,5.31,6.14,3.02,12.59,6.08,25.18,9.1,37.77,1.3,5.44,4.24,9.39,10.11,10.32,16.6-.01,33.19-.03,49.79-.04,5.71-.88,8.59-4.69,10.08-9.94.24-.86.45-1.72.65-2.59,2.74-12.02,5.83-23.95,8.68-35.94.73-3.06,2.25-4.99,5.2-5.86,5.58-1.64,10.8-4.22,15.98-6.78,3.14-1.55,5.56-1.2,8.4.57,8.98,5.6,18,11.13,27.15,16.44,6.94,4.03,12.48,3.33,18.18-2.3,9.71-9.61,19.32-19.32,28.83-29.14,6.37-6.57,6.8-11.57,2.1-19.51-5.48-9.26-10.91-18.56-16.5-27.76-1.44-2.38-1.71-4.48-.44-7.11,2.09-4.33,4.34-8.66,5.57-13.33,1.25-4.73,4.04-6.9,8.78-8,11.88-2.76,23.75-5.65,35.56-8.74,6.83-1.78,10.43-5.94,10.47-12.17.11-15.51.04-31.01.08-46.52.01-5.55-3.03-8.91-7.63-11.19ZM296.02,423.46c-67.88,0-122.91-55.03-122.91-122.91s55.03-122.91,122.91-122.91,122.91,55.03,122.91,122.91-55.03,122.91-122.91,122.91Z" style="fill:#00a174; stroke:#00a174; stroke-linecap:round; stroke-linejoin:round; stroke-width:7px;"/><path d="M355.47,283.86l-90.51,113.67c-.58.73-1.75.17-1.54-.74l17.64-77.79c.13-.58-.35-1.13-.94-1.07l-42.77,4.32c-.76.08-1.25-.79-.79-1.4l87.66-117.27c.55-.74,1.72-.24,1.57.67l-14.04,84.67c-.1.6.42,1.11,1.02,1.01l41.87-7.47c.8-.14,1.34.78.84,1.41Z" style="fill:#00a174; stroke:#00a174; stroke-linecap:round; stroke-linejoin:round; stroke-width:7px;"/></svg>