<?xml version="1.0" encoding="UTF-8"?><svg id="Layer_1" xmlns="http://www.w3.org/2000/svg" width="210mm" height="210mm" viewBox="0 0 595.28 595.28"><path d="M378.43,134.83c-45.95-6.15-64.29-28.81-81.2-36.81-19.42,8.45-35.56,26.6-83.06,35.41-29.71,5.51-57.86,2.73-76.81,0,1.87,78.01,3.41,141.89,5.28,219.9,1.86,77.32,66.88,141.39,150.26,146.22,1.2.07,2.4.13,3.61.18,1.23.05,2.45.09,3.67.11,86.46,1.93,157.25-63.42,157.25-143.49v-222.92c-19.38,3.4-43.36,6.17-79,1.4ZM397.6,347.18c-1.26,31.24-23.98,62.58-57.48,69.36,11.16-22.36,13.82-46.01,9.54-70.26-5.27,8.62-10.53,17.24-15.8,25.87,1.72-19.32,3.38-39.15-2.52-57.78-5.91-18.62-17.63-37.52-38.47-41.44,6.58,10.07,2.84,23.32-4.29,33.08-7.13,9.75-17.23,17.42-24.81,26.89-19.56,24.42-19.68,62.01.54,85.98-27.56-8.31-50.54-28.37-60.84-53.09-9.88-23.73-8.51-53.76,6.4-75.65-.08,7.69-.78,14.37,3.56,21.69,1.95,3.3,4.49,6.47,7.78,8.76,2.73,1.89,6.36,2.66,8.98,4.59,2.43,1.79,5.32,8.84,9.29,6.12,4.22-2.89.45-17.5-.3-21.51-2.82-15.08-8.49-29.86-8.03-45.32,1.09-37.07,29.04-72.16,60.27-94.07,3.73-2.62,10.25-8.45,15-8.88-4.99,9.63-9.14,16.98-8.11,28.16.99,10.72,5.5,21.2,12.15,30.05,12.71,16.92,31.47,29.14,47.17,43.82,23.94,22.39,41.22,52.41,39.96,83.65Z" style="fill:#00a174; stroke:#00a174; stroke-linecap:round; stroke-linejoin:round; stroke-width:7px;"/></svg>