<?xml version="1.0" encoding="UTF-8"?><svg id="Layer_1" xmlns="http://www.w3.org/2000/svg" width="210mm" height="210mm" viewBox="0 0 595.28 595.28"><rect x="136.15" y="170.19" width="261.85" height="290.55" style="fill:none;"/><path d="M372.36,370.89c10.41-.41,17.85.25,40.31-.85,2.05-.1,5.68-.24,8.94,1.74,3.73,2.25,6.13,6.73,5.64,11.13-.11,1.02-.45,3.66-2.62,5.84-2.54,2.55-6.34,3.18-9.16,3.35-7.9.49-58.73.56-128.42,0-5.29-.92-11.72-2.46-18.75-5.09-7.78-2.91-14.03-6.33-18.75-9.33-18.12.57-36.24,1.13-54.37,1.7l27.18-128.08c4.78.18,10.94-.02,17.91-1.36,9.82-1.88,17.4-5.26,22.39-7.97,6.73-5.68,12.93-12.31,18.02-12.64,6.42-.42,12.25-.66,17.76-.78,7.02-.15,24.04-1.36,32.04.5,2.87.67,4.66,1.73,5.83,2.65,1.71,1.34,2.66,2.87,3.02,3.47.22.35,1.1,1.82,1.61,3.83.96,3.77,0,7.1-.61,8.76-4.02-.08-12.56-.15-20.16.55-1.24.11-3.41.34-4.84,1.82-1.65,1.71-1.87,4.64-.6,6.75.14.24.75,1.2,2.02,2.01,2.03,1.29,4.3,1.28,5.04,1.28,36.08-.11,72.16.55,108.24.55h0c2.6,0,7.93,0,11.69,2.74,4.21,3.06,4.43,8.08,4.43,8.39.02.73.12,4.59-2.82,7.3-2.41,2.21-5.7,2.54-7.28,2.71-7.03.75-31.07,1.48-63.74,1.7-6.03-.5-10.76,2.76-11.25,5.94-.55,3.58,4.05,8.59,11.25,8.48,20,.28,39.99.57,59.99.85,1.3.02,5.14-.08,8.81,1.85,2.28,1.2,3.46,2.63,3.83,3.1.52.67,1.8,2.34,2.02,4.74.25,2.79-1.01,5.46-2.82,7.11-3.18,2.91-8.14,2.75-9.96,2.7-9.02-.23-32.63-.08-64.68,0-4.19.72-7.29,3.92-7.5,7.63-.23,4.01,2.96,7.69,7.5,8.48,17.19.57,34.37,1.13,51.56,1.7,2.32.08,6.87.53,9.78,3.56,3.14,3.28,4.1,9.4.6,13.68-2.23,2.73-5.4,3.66-6.64,3.96-17.5-.28-34.99-.57-52.49-.85-7.57-.51-12.98,3.57-13.12,6.79-.15,3.3,5.17,7.95,13.12,7.63Z" style="fill:#00a174; stroke:#00a174; stroke-miterlimit:10;"/><path d="M352.68,152.05c-4.63,13.32-1.63,24.84,0,29.69,3.59,10.65,10.21,17.69,14.06,21.21l-8.44,44.11,63.74.85,4.69-38.17c5.34-2.51,15.75-8.28,23.43-19.51,2.61-3.82,7.83-11.64,8.44-22.9.17-3.17.25-11.68-4.69-21.21-5.44-10.51-13.89-16.3-17.81-18.66,2.12,21.62-4.32,40.02-16.91,46.6-8.05,4.21-15.72,3.65-15.72,3.65,0,0-9.17-.67-16.53-7.3-9.98-8.99-10.08-27.75.3-46.33-4.01.49-13.74,2.19-22.38,9.31-7.86,6.47-10.54,13.92-12.19,18.66Z" style="fill:#00a174; stroke:#00a174; stroke-miterlimit:10;"/><path d="M346.12,473.53c.61.07,1.22.15,1.82.22,3,.2,11.15.38,19.65-4.1,8.83-4.65,12.68-11.51,13.91-13.95,2.89-16.67,5.78-33.35,8.67-50.02h-63.74l-6.56,32.23c-.78,3.28-1.68,9.55,1.16,16.42,6.34,15.36,25.7,19.28,25.09,19.21Z" style="fill:#00a174; stroke:#00a174; stroke-miterlimit:10;"/><polygon points="166.14 238.57 212.07 238.57 180.2 388.71 136.15 387.01 166.14 238.57" style="fill:#00a174; stroke:#00a174; stroke-miterlimit:10;"/><line x1="249.34" y1="146.13" x2="321.75" y2="145.26" style="fill:#00a174; stroke:#00a174; stroke-linecap:round; stroke-linejoin:round; stroke-width:7px;"/><line x1="199.89" y1="181.74" x2="324.56" y2="180.89" style="fill:#00a174; stroke:#00a174; stroke-linecap:round; stroke-linejoin:round; stroke-width:7px;"/></svg>