<?xml version="1.0" encoding="UTF-8"?><svg id="Layer_1" xmlns="http://www.w3.org/2000/svg" width="210mm" height="210mm" viewBox="0 0 595.28 595.28"><path d="M500.78,462.14L308.56,120.83c-4.79-8.51-17.05-8.51-21.85,0L94.5,462.14c-4.71,8.36,1.33,18.69,10.92,18.69h384.43c9.59,0,15.63-10.33,10.92-18.69ZM433.48,447.61H162.63c-9.59,0-15.63-10.33-10.92-18.69l135.43-240.47c4.79-8.51,17.05-8.51,21.85,0l135.43,240.47c4.71,8.36-1.33,18.69-10.92,18.69Z" style="fill:#00a174;"/><circle cx="297.64" cy="407.7" r="24.09" style="fill:#00a174;"/><path d="M297.58,365.55h0c-8.39,0-15.37-6.46-16.01-14.83l-13.2-172.72h58.53l-13.34,172.77c-.64,8.34-7.6,14.79-15.97,14.79Z" style="fill:#00a174;"/></svg>